<?xml version="1.0" standalone="no"?>
<!DOCTYPE svg PUBLIC "-//W3C//DTD SVG 20010904//EN"
 "http://www.w3.org/TR/2001/REC-SVG-20010904/DTD/svg10.dtd">
<svg version="1.0" xmlns="http://www.w3.org/2000/svg"
 width="44.000000pt" height="44.000000pt" viewBox="0 0 44.000000 44.000000"
 preserveAspectRatio="xMidYMid meet">

<g transform="translate(0.000000,44.000000) scale(0.100000,-0.100000)"
fill="#000000" stroke="none">
<path d="M230 431 c0 -5 24 -21 54 -34 57 -26 104 -76 122 -129 12 -37 34 -49
34 -18 0 29 -32 90 -66 124 -49 48 -144 86 -144 57z"/>
<path d="M34 386 c-27 -27 -34 -42 -34 -73 0 -123 190 -313 313 -313 32 0 46
7 73 36 19 19 34 41 34 48 0 21 -99 108 -113 100 -6 -4 -22 -16 -34 -27 l-23
-20 -57 56 -56 57 21 23 c12 13 22 33 22 44 0 25 -73 103 -96 103 -9 0 -31
-15 -50 -34z m116 -70 c0 -5 -10 -20 -22 -33 -22 -24 -22 -24 -3 -59 21 -39
74 -89 111 -106 20 -9 28 -8 47 10 30 29 35 28 74 -10 l33 -32 -27 -28 c-34
-35 -64 -36 -132 -2 -94 47 -201 181 -201 253 0 14 12 38 27 53 l27 28 33 -32
c18 -18 33 -36 33 -42z"/>
<path d="M230 345 c0 -8 7 -15 16 -15 21 0 84 -63 84 -84 0 -9 7 -16 15 -16
21 0 19 29 -5 67 -29 49 -110 84 -110 48z"/>
</g>
</svg>
